<svg aria-hidden="true" style="position: absolute; width: 0; height: 0; overflow: hidden;" version="1.1" xmlns="http://www.w3.org/2000/svg" xmlns:xlink="http://www.w3.org/1999/xlink">
<defs>
<symbol id="icon-logo" viewBox="0 0 32 32">
<path d="M3.331 0.094c-0.506 0.138-0.825 0.325-1.206 0.713-0.4 0.394-0.644 0.863-0.744 1.406-0.094 0.519-0.094 12.119 0 12.637 0.188 1.012 0.875 1.781 1.875 2.094 0.337 0.106 0.594 0.119 2.156 0.119h1.775v1.656c0 1.925-0.006 1.906 0.569 2.5l0.387 0.4-0.119 0.175c-0.063 0.1-0.231 0.337-0.381 0.538-0.463 0.637-0.425 1 0.169 1.587l0.369 0.363-0.375 0.494c-0.206 0.275-0.4 0.606-0.444 0.738-0.1 0.337 0.050 0.688 0.475 1.106l0.338 0.331-0.375 0.512c-0.475 0.637-0.569 0.85-0.569 1.325-0.006 0.294 0.037 0.462 0.162 0.731 0.15 0.3 0.331 0.481 1.3 1.306 0.619 0.525 1.213 1.006 1.325 1.063 0.231 0.131 0.5 0.138 0.744 0.031 0.219-0.094 2.581-2.131 2.719-2.337 0.056-0.081 0.113-0.288 0.131-0.462l0.031-0.306h9.544v0.863c0 1.031 0.087 1.406 0.419 1.769 0.444 0.494 0.569 0.525 1.988 0.525 1.394 0 1.525-0.031 1.944-0.481 0.394-0.419 0.431-0.538 0.45-1.712 0.025-1.050 0.025-1.075 0.169-1.137 0.244-0.113 0.594-0.456 0.738-0.725 0.137-0.25 0.137-0.3 0.156-3.538 0.012-2.144-0.006-3.387-0.050-3.587-0.038-0.169-0.15-0.469-0.244-0.663l-0.181-0.356 0.45-0.038c0.744-0.056 1.169-0.331 1.512-0.981 0.156-0.294 0.163-1.419 0.012-1.756-0.137-0.313-0.462-0.663-0.762-0.825-0.238-0.131-0.337-0.137-1.506-0.137-1.356 0-1.462 0.025-1.856 0.387l-0.169 0.163-0.094-0.337c-0.050-0.188-0.325-1.194-0.6-2.244-0.281-1.050-0.563-2.019-0.625-2.156-0.163-0.338-0.587-0.756-0.969-0.963l-0.313-0.162-4.188-0.063-0.063-8.688-0.194-0.406c-0.244-0.506-0.6-0.906-1.031-1.169-0.688-0.406-0.387-0.394-7.806-0.388-5.581 0-6.775 0.019-7.044 0.087zM17.288 1.156c0.406 0.119 0.725 0.394 0.925 0.794l0.163 0.325v12.512l-0.163 0.325c-0.087 0.181-0.262 0.406-0.387 0.512-0.481 0.394-0.131 0.381-7.55 0.363l-6.744-0.019-0.288-0.169c-0.331-0.194-0.587-0.475-0.738-0.8-0.087-0.194-0.1-0.875-0.1-6.469v-6.25l0.15-0.3c0.175-0.35 0.55-0.694 0.906-0.819 0.388-0.137 13.363-0.144 13.825-0.006zM23.606 11.912c0.094 0.069 0.231 0.213 0.3 0.319 0.075 0.106 0.462 1.438 0.956 3.275 0.456 1.7 0.825 3.106 0.825 3.131 0 0.031-1.469 0.050-3.262 0.050h-3.269l1.7-1.706c0.938-0.931 1.731-1.775 1.762-1.869 0.119-0.325-0.131-0.675-0.488-0.675-0.206 0-0.356 0.131-2.35 2.125l-2.131 2.125h-4.025v-1.625h1.738c1.838 0 2.162-0.038 2.713-0.319 0.406-0.206 0.906-0.75 1.131-1.225l0.2-0.425 0.038-3.35 1.994 0.019c1.906 0.019 2 0.025 2.169 0.15zM12.55 23.063l0.012 5.969-1.069 0.919-1.075 0.919-0.387-0.325c-0.213-0.181-0.662-0.55-0.988-0.825-0.631-0.525-0.813-0.781-0.75-1.038 0.025-0.081 0.244-0.431 0.494-0.775 0.244-0.344 0.469-0.712 0.488-0.813 0.069-0.319-0.063-0.6-0.463-1l-0.375-0.381 0.375-0.506c0.213-0.281 0.406-0.6 0.438-0.712 0.1-0.344-0.031-0.656-0.438-1.081l-0.369-0.381 0.375-0.5c0.419-0.556 0.463-0.669 0.412-1.069-0.025-0.25-0.088-0.337-0.506-0.769l-0.475-0.494v-3.137l2.144 0.012 2.137 0.019 0.019 5.969zM29.406 17.2c0.2 0.175 0.281 0.712 0.156 1.075-0.119 0.375-0.269 0.413-1.531 0.413h-1.094v-0.631c0-0.613 0.006-0.631 0.181-0.813l0.181-0.181h0.975c0.913 0 0.975 0.006 1.131 0.137zM27.113 19.913c0.363 0.181 0.656 0.512 0.794 0.9 0.194 0.544 0.344 0.5-1.825 0.5-2.544 0.006-2.438-0.038-3.025 1.137-0.3 0.594-0.369 0.794-0.369 1.038 0 0.488 0.344 0.9 0.85 1.012 0.131 0.031 1.194 0.063 2.356 0.063h2.106v1.4c0 1.394 0 1.406-0.15 1.581l-0.15 0.175-14.075 0.031v-8h13.163l0.325 0.163zM28 22.906v0.531h-4.25l0.525-1.063h3.725v0.531zM26.938 29.694v0.881l-0.363 0.363h-0.975c-0.931 0-0.975-0.006-1.144-0.15-0.175-0.15-0.175-0.15-0.194-1.063l-0.019-0.913h2.694v0.881z"></path>
<path d="M5.581 2.875c-0.669 0.331-1.019 0.906-1.019 1.656s0.35 1.325 1.013 1.65l0.381 0.194h8.887l0.319-0.15c0.375-0.175 0.719-0.5 0.912-0.869 0.206-0.381 0.206-1.269 0-1.65-0.175-0.337-0.506-0.669-0.844-0.844l-0.262-0.144-9.006-0.038-0.381 0.194zM14.912 3.956c0.194 0.175 0.231 0.256 0.262 0.531 0.025 0.313 0.019 0.331-0.225 0.575l-0.25 0.25h-4.269c-4.119 0-4.281-0.006-4.456-0.119-0.244-0.162-0.344-0.356-0.35-0.65 0-0.287 0.138-0.544 0.369-0.688 0.144-0.094 0.594-0.1 4.431-0.106h4.262l0.225 0.206z"></path>
<path d="M3.737 12.344c-0.231 0.131-0.3 0.419-0.3 1.3 0 0.787 0.075 1.106 0.3 1.225 0.175 0.094 1.919 0.088 2.094-0.006 0.331-0.175 0.4-0.575 0.138-0.831-0.138-0.144-0.194-0.156-0.781-0.156h-0.625v-0.525c0-0.631-0.081-0.887-0.319-1.006-0.213-0.113-0.294-0.113-0.506 0z"></path>
<path d="M17.15 21.375c-0.344 0.137-0.438 0.594-0.181 0.844 0.15 0.156 0.156 0.156 1.438 0.156s1.288 0 1.438-0.156c0.2-0.194 0.2-0.469 0.006-0.7l-0.15-0.175-1.212-0.012c-0.663-0.006-1.269 0.012-1.337 0.044z"></path>
<path d="M15.506 23.5c-0.262 0.063-0.5 0.231-0.675 0.5-0.131 0.188-0.144 0.275-0.144 1.044 0 0.906 0.037 1.044 0.356 1.337 0.094 0.094 0.269 0.194 0.387 0.238 0.281 0.094 5.563 0.094 5.9 0 0.319-0.087 0.65-0.394 0.738-0.675 0.038-0.131 0.056-0.556 0.044-1.019-0.019-0.681-0.038-0.813-0.15-0.962-0.181-0.25-0.406-0.4-0.688-0.462-0.3-0.075-5.475-0.069-5.769 0zM21.063 25.094v0.531h-5.313v-1.063h5.313v0.531z"></path>
</symbol>
<symbol id="icon-x" viewBox="0 0 32 32">
<path stroke-linejoin="round" stroke-linecap="round" stroke-miterlimit="4" stroke-width="2.4" d="M24 8l-16 16"></path>
<path stroke-linejoin="round" stroke-linecap="round" stroke-miterlimit="4" stroke-width="2.4" d="M8 8l16 16"></path>
</symbol>
<symbol id="icon-favorite" viewBox="0 0 32 32">
<path stroke-linejoin="round" stroke-linecap="round" stroke-miterlimit="4" stroke-width="2.6667" d="M27.787 6.147c-0.681-0.681-1.49-1.222-2.38-1.591s-1.844-0.559-2.807-0.559c-0.963 0-1.917 0.19-2.807 0.559s-1.698 0.909-2.38 1.591l-1.413 1.413-1.413-1.413c-1.376-1.376-3.241-2.148-5.187-2.148s-3.811 0.773-5.187 2.148c-1.376 1.376-2.148 3.241-2.148 5.187s0.773 3.811 2.148 5.187l11.787 11.787 11.787-11.787c0.681-0.681 1.222-1.49 1.591-2.38s0.559-1.844 0.559-2.807c0-0.963-0.19-1.917-0.559-2.807s-0.909-1.699-1.591-2.38z"></path>
</symbol>
</defs>
</svg>
