<svg aria-hidden="true" style="position: absolute; width: 0; height: 0; overflow: hidden;" version="1.1" xmlns="http://www.w3.org/2000/svg" xmlns:xlink="http://www.w3.org/1999/xlink">
<defs>
<symbol id="icon-logo" viewBox="0 0 24 32">
<path fill="#000" style="fill: var(--color1, #000)" d="M14.407 11.901h2.788c1.518 0 2.323 0.829 2.695 1.799l1.974 5.093c0.782 0.1 2.169 1.019 2.169 2.758v6.477h-1.92v2.071c0 2.549-3.607 2.519-3.607 0v-2.071h-12.979v2.071c0 2.519-3.607 2.549-3.607 0v-2.071h-1.92v-6.477c0-1.739 1.385-2.659 2.167-2.758l1.974-5.093c0.372-0.97 1.177-1.799 2.695-1.799h7.571z"></path>
<path fill="#000" style="fill: var(--color1, #000)" d="M6.864 9.968c2.725 0 4.934-2.231 4.934-4.984s-2.209-4.984-4.934-4.984c-2.725 0-4.934 2.231-4.934 4.984s2.209 4.984 4.934 4.984z"></path>
<path fill="#000" style="fill: var(--color1, #000)" d="M10.545 2.508h10.537l1.693 1.71c0.311 0.314 0.304 0.532 0 0.839l-2.060 2.080-1.213-1.225-1.213 1.225-1.197-1.209-1.165 1.177-1.213-1.225-1.581 1.597h-2.586v-4.968z"></path>
<path fill="#000" style="fill: var(--color1, #000)" d="M12.015 18.74h-7.803l1.486-4.009c0.186-0.563 0.465-0.969 1.115-0.975h10.407c0.65 0.006 0.929 0.413 1.115 0.975l1.486 4.009h-7.806z"></path>
<path fill="#fff" style="fill: var(--color2, #fff)" d="M3.781 24.125c-0.92 0-1.666-0.769-1.666-1.717s0.746-1.718 1.666-1.718c0.92 0 1.666 0.769 1.666 1.718s-0.746 1.717-1.666 1.717z"></path>
<path fill="#fff" style="fill: var(--color2, #fff)" d="M20.251 24.125c0.92 0 1.666-0.769 1.666-1.717s-0.746-1.718-1.666-1.718-1.666 0.769-1.666 1.718c0 0.948 0.746 1.717 1.666 1.717z"></path>
<path fill="#fff" style="fill: var(--color2, #fff)" d="M4.697 6.282c0.723 0 1.31-0.592 1.31-1.323s-0.586-1.323-1.31-1.323-1.31 0.592-1.31 1.323c0 0.731 0.586 1.323 1.31 1.323z"></path>
</symbol>
<symbol id="icon-x" viewBox="0 0 32 32">
<path stroke-linejoin="round" stroke-linecap="round" stroke-miterlimit="4" stroke-width="2.4" d="M24 8l-16 16"></path>
<path stroke-linejoin="round" stroke-linecap="round" stroke-miterlimit="4" stroke-width="2.4" d="M8 8l16 16"></path>
</symbol>
<symbol id="icon-favorite" viewBox="0 0 32 32">
<path stroke-linejoin="round" stroke-linecap="round" stroke-miterlimit="4" stroke-width="2.6667" d="M27.787 6.147c-0.681-0.681-1.49-1.222-2.38-1.591s-1.844-0.559-2.807-0.559c-0.963 0-1.917 0.19-2.807 0.559s-1.698 0.909-2.38 1.591l-1.413 1.413-1.413-1.413c-1.376-1.376-3.241-2.148-5.187-2.148s-3.811 0.773-5.187 2.148c-1.376 1.376-2.148 3.241-2.148 5.187s0.773 3.811 2.148 5.187l11.787 11.787 11.787-11.787c0.681-0.681 1.222-1.49 1.591-2.38s0.559-1.844 0.559-2.807c0-0.963-0.19-1.917-0.559-2.807s-0.909-1.699-1.591-2.38z"></path>
</symbol>
</defs>
</svg>
