<?xml version="1.0" encoding="iso-8859-1"?>
<svg fill="#000000" height="800px" width="800px" version="1.1" id="Capa_1" xmlns="http://www.w3.org/2000/svg" xmlns:xlink="http://www.w3.org/1999/xlink" 
	viewBox="0 0 227.445 227.445" xml:space="preserve">
<g>
	<path d="M201.44,144.174l-24.734-59.979c-2.061-5.02-7.953-8.75-13.379-8.75H64.784c-5.425,0-11.289,3.73-13.351,8.75
		l-25.095,60.08c-1.809,4.407-3.616,11.488-3.616,16.25v32.45c0,5.79,5.49,10.47,11.28,10.47h2.72v4c0,11.028,8.972,20,20,20
		s20-8.972,20-20v-4h72v4.468c0,10.787,9.078,19.532,19.865,19.532h0.938c10.787,0,19.198-8.745,19.198-19.532v-4.468h5.387
		c5.79,0,10.613-4.68,10.613-10.47v-32.45C204.722,155.763,203.249,148.581,201.44,144.174z M58.52,184.299
		c-8.493,0-15.378-6.885-15.378-15.378c0-8.493,6.885-15.377,15.378-15.377s15.378,6.885,15.378,15.377
		C73.898,177.414,67.013,184.299,58.52,184.299z M56.818,134.445l15.99-44h82.495l15.99,44H56.818z M170.167,184.299
		c-8.493,0-15.377-6.885-15.377-15.378c0-8.493,6.885-15.377,15.377-15.377c8.493,0,15.377,6.885,15.377,15.377
		C185.544,177.414,178.659,184.299,170.167,184.299z"/>
	<path d="M77.066,60.944c11.694,0,21.876-6.5,27.043-16.5h60.344c2.362,0,5.117-0.866,6.855-2.464l7.299-6.6
		c1.414-1.3,2.226-3.083,2.227-4.984c-0.001-1.902-0.813-3.685-2.226-4.983l-7.297-6.703c-0.064-0.059-0.139-0.112-0.206-0.17
		l-5.039-7.854c-1.203-1.875-3.18-2.995-5.289-2.995s-4.086,1.12-5.288,2.994l-1.955,3.046l-1.954-3.045
		c-1.203-1.875-3.18-2.995-5.289-2.995s-4.086,1.12-5.288,2.994l-1.955,3.046l-1.956-3.048c-1.204-1.874-3.181-2.992-5.287-2.992
		c-2.109,0-4.086,1.325-5.288,3.199l-3.433,5.554h-18.976C98.943,6.445,88.76,0,77.066,0C60.164,0,46.413,13.649,46.413,30.55
		C46.413,47.452,60.164,60.944,77.066,60.944z M77.066,19.416c6.093,0,11.032,4.939,11.032,11.032S83.159,41.48,77.066,41.48
		c-6.093,0-11.032-4.939-11.032-11.032S70.973,19.416,77.066,19.416z"/>
</g>
</svg>